<svg width="237" height="90" viewBox="0 0 237 90" fill="none" 
    xmlns="http://www.w3.org/2000/svg">
    <path d="M88.552 59C87.256 59 86.152 58.544 85.24 57.632C84.328 56.72 83.872 55.616 83.872 54.32V52.808H87.76V53.78C87.76 54.308 87.844 54.668 88.012 54.86C88.204 55.028 88.564 55.112 89.092 55.112H104.572C105.1 55.112 105.448 55.028 105.616 54.86C105.784 54.668 105.868 54.308 105.868 53.78V49.316C105.868 48.764 105.784 48.404 105.616 48.236C105.448 48.068 105.1 47.984 104.572 47.984H88.552C87.256 47.984 86.152 47.528 85.24 46.616C84.328 45.704 83.872 44.6 83.872 43.304V37.76C83.872 36.464 84.328 35.36 85.24 34.448C86.152 33.536 87.256 33.08 88.552 33.08H105.112C106.408 33.08 107.512 33.536 108.424 34.448C109.336 35.36 109.792 36.464 109.792 37.76V39.272H105.868V38.3C105.868 37.772 105.784 37.424 105.616 37.256C105.448 37.064 105.1 36.968 104.572 36.968H89.092C88.564 36.968 88.204 37.064 88.012 37.256C87.844 37.424 87.76 37.772 87.76 38.3V42.764C87.76 43.316 87.844 43.676 88.012 43.844C88.204 43.988 88.564 44.06 89.092 44.06H105.112C106.408 44.06 107.512 44.528 108.424 45.464C109.336 46.376 109.792 47.48 109.792 48.776V54.32C109.792 55.616 109.336 56.72 108.424 57.632C107.512 58.544 106.408 59 105.112 59H88.552ZM113.544 59V33.08H117.432V59H113.544ZM121.387 59V33.08H126.031L136.075 45.032L146.083 33.08H150.763V59H146.839V38.3L136.075 51.116L125.275 38.3V59H121.387ZM154.786 59V33.116H175.99C177.31 33.116 178.426 33.584 179.338 34.52C180.25 35.432 180.706 36.524 180.706 37.796V45.068C180.706 46.34 180.25 47.444 179.338 48.38C178.426 49.292 177.31 49.748 175.99 49.748L158.674 49.784V59H154.786ZM160.006 45.824H175.45C175.978 45.824 176.326 45.74 176.494 45.572C176.686 45.404 176.782 45.056 176.782 44.528V38.336C176.782 37.808 176.686 37.46 176.494 37.292C176.326 37.1 175.978 37.004 175.45 37.004H160.006C159.478 37.004 159.118 37.1 158.926 37.292C158.758 37.46 158.674 37.808 158.674 38.336V44.528C158.674 45.056 158.758 45.404 158.926 45.572C159.118 45.74 159.478 45.824 160.006 45.824ZM183.298 59V33.044H187.186V55.112H209.218V59H183.298ZM211.389 59V33.08H235.149V36.968H215.313V44.06H231.261V47.984H215.313V55.112H235.149V59H211.389Z" fill="white"/>
    <path d="M74.7313 50.5804L33.083 75.4552C28.7503 78.0429 23.25 74.9214 23.25 69.8748L23.25 20.1252C23.25 15.0786 28.7503 11.957 33.083 14.5447L74.7312 39.4195C78.954 41.9416 78.954 48.0584 74.7313 50.5804Z" stroke="white" stroke-width="3"/>
    <path d="M33.0001 48.464C30.3335 46.9244 30.3335 43.0754 33.0001 41.5358L48.0001 32.8756C50.6668 31.336 54.0001 33.2605 54.0001 36.3397L54.0001 53.6602C54.0001 56.7394 50.6668 58.6639 48.0001 57.1243L33.0001 48.464Z" fill="white"/>
</svg>
